<svg xmlns="http://www.w3.org/2000/svg" id="Layer_2" viewBox="0 0 484.72 234.75"><g id="Layer_1-2"><path d="M457.68,16.23H27.04c-5.96,0-10.82,4.85-10.82,10.82V207.7c0,5.96,4.85,10.82,10.82,10.82H457.68c5.96,0,10.82-4.85,10.82-10.82V27.04c0-5.96-4.85-10.82-10.82-10.82" style="fill:#54af32;"></path><path d="M457.68,0H27.04C12.13,0,0,12.13,0,27.04V207.7c0,14.91,12.13,27.04,27.04,27.04H457.68c14.91,0,27.04-12.13,27.04-27.04V27.04c0-14.91-12.13-27.04-27.04-27.04m18.03,207.7c0,9.94-8.09,18.03-18.03,18.03H27.04c-9.94,0-18.03-8.09-18.03-18.03V27.04c0-9.94,8.09-18.03,18.03-18.03H457.68c9.94,0,18.03,8.09,18.03,18.03V207.7Z" style="fill:#54af32;"></path><path d="M165.45,113.89c-1.24,16.82-2.2,35.65-2.86,56.48-13.84,2.6-27.78,3.9-41.81,3.9-21.58,0-36.85-6.06-45.82-18.17-5.83-7.91-8.74-18.02-8.74-30.34,0-15.32,4.87-28.04,14.61-38.15,10.88-11.42,26.21-17.12,45.97-17.12,10.98,0,22.58,1.3,34.8,3.91l1,23.58c-11.27-3.7-21.24-5.56-29.93-5.56-10.88,0-19.57,2.85-26.06,8.56-6.87,6.21-10.31,14.97-10.31,26.29,0,8.21,2.24,14.6,6.73,19.15,4.49,4.56,10.69,6.83,18.62,6.83,3.24,0,7.83-.7,13.75-2.1l.86-16.22h-12.89l.86-21.03h41.24Z" style="fill:#fff;"></path><path d="M319.53,72.28c-12.22,37.45-22.72,70.85-31.51,100.19h-36.52c-.38-2.8-2.2-13.07-5.44-30.79-2.2-12.42-3.63-22.58-4.3-30.49h-.29c-1.53,7.91-3.92,18.08-7.16,30.49-4.58,17.02-7.3,27.29-8.16,30.79h-35.08c-5.06-27.74-11.89-61.13-20.48-100.19h28.5c1.15,8.11,3.29,19.83,6.44,35.15,3.15,15.72,5.3,27.29,6.45,34.7h.29c3.82-15.42,9.21-38.7,16.18-69.85h32.36c1.05,8.91,4.53,32.14,10.45,69.7h.29c2.01-8.41,5.25-19.98,9.74-34.7,5.06-16.52,8.5-28.19,10.31-35h27.93Z" style="fill:#fff;"></path><path d="M426.22,172.47h-31.79c-1.53-6.11-4.54-15.72-9.02-28.84h-35.23l-12.6,28.84h-32.94c4.77-8.31,13.46-25.03,26.06-50.17,12.03-23.83,20.14-40.5,24.34-50.02h36.09c9.26,28.24,20.95,61.64,35.08,100.19m-45.82-49.87l-8.88-28.69-12.89,28.69h21.77Z" style="fill:#fff;"></path></g></svg>